<svg width="180" height="19" viewBox="0 0 180 19" fill="none" xmlns="http://www.w3.org/2000/svg">
<rect x="52" width="64" height="19" rx="9.5" fill="black"/>
<path d="M16.192 12.5861H17.3409V6.16028H16.1964L14.5176 7.34036V8.42247L16.1162 7.29137H16.192V12.5861Z" fill="black"/>
<path d="M11.7484 12.5861H12.8483V11.3526H13.7122V10.4041H12.8483V6.16028H11.2229C10.3501 7.48731 9.43723 8.96575 8.60449 10.413V11.3526H11.7484V12.5861ZM9.67324 10.4308V10.364C10.2967 9.27301 11.0404 8.08403 11.6994 7.07762H11.7662V10.4308H9.67324Z" fill="black"/>
<path d="M6.79105 8.42257C7.20074 8.42257 7.4991 8.11085 7.4991 7.71897C7.4991 7.32265 7.20074 7.01538 6.79105 7.01538C6.38582 7.01538 6.08301 7.32265 6.08301 7.71897C6.08301 8.11085 6.38582 8.42257 6.79105 8.42257ZM6.79105 11.7268C7.20074 11.7268 7.4991 11.4195 7.4991 11.0232C7.4991 10.6269 7.20074 10.3196 6.79105 10.3196C6.38582 10.3196 6.08301 10.6269 6.08301 11.0232C6.08301 11.4195 6.38582 11.7268 6.79105 11.7268Z" fill="black"/>
<path d="M2.38688 6C0.993048 6 0 6.95297 0 8.25773V8.26664C0 9.4868 0.863906 10.3863 2.09742 10.3863C2.97914 10.3863 3.54024 9.93656 3.77625 9.42891H3.86531C3.86531 9.47789 3.86086 9.52687 3.86086 9.57586C3.81188 10.8049 3.37992 11.8024 2.36016 11.8024C1.79461 11.8024 1.39828 11.5085 1.22906 11.0587L1.2157 11.0142H0.0846094L0.0935156 11.0632C0.298359 12.0473 1.18008 12.7465 2.36016 12.7465C3.97664 12.7465 4.95188 11.464 4.95188 9.29977V9.29086C4.95188 6.97523 3.75844 6 2.38688 6ZM2.38242 9.50461C1.65211 9.50461 1.12219 8.97023 1.12219 8.22656V8.21766C1.12219 7.5007 1.68774 6.93516 2.39578 6.93516C3.10828 6.93516 3.66492 7.50961 3.66492 8.24437V8.25328C3.66492 8.97914 3.10828 9.50461 2.38242 9.50461Z" fill="black"/>
<path opacity="0.35" d="M175.521 12.2841V12.8921H167.333V12.2841H175.521ZM177.507 10.298V8.59568C177.507 8.13166 177.507 7.82022 177.487 7.58037C177.468 7.34768 177.434 7.23638 177.397 7.16296C177.3 6.97229 177.145 6.81718 176.954 6.72002C176.88 6.68263 176.769 6.64879 176.536 6.62977C176.297 6.61018 175.985 6.60959 175.521 6.60959H167.333C166.869 6.60959 166.558 6.61018 166.318 6.62977C166.085 6.64879 165.974 6.68263 165.901 6.72002C165.71 6.81718 165.555 6.97229 165.458 7.16296C165.42 7.23638 165.386 7.34768 165.367 7.58037C165.348 7.82022 165.347 8.13166 165.347 8.59568V10.298C165.347 10.7619 165.348 11.0734 165.367 11.3133C165.386 11.5458 165.42 11.6573 165.458 11.7307C165.555 11.9213 165.71 12.0765 165.901 12.1736C165.974 12.211 166.085 12.2454 166.318 12.2645C166.558 12.2841 166.869 12.2841 167.333 12.2841V12.8921C166.482 12.8921 166.03 12.8921 165.691 12.7466L165.625 12.7157C165.358 12.5797 165.134 12.3725 164.979 12.1184L164.916 12.0068C164.74 11.66 164.739 11.2059 164.739 10.298V8.59568C164.739 7.74457 164.739 7.29232 164.885 6.95337L164.916 6.88687C165.052 6.61995 165.259 6.39663 165.513 6.24087L165.625 6.17852C165.971 6.00181 166.425 6.00159 167.333 6.00159H175.521L176.123 6.00456C176.65 6.01284 176.97 6.046 177.23 6.17852C177.535 6.33396 177.783 6.58185 177.938 6.88687C178.115 7.23369 178.115 7.68768 178.115 8.59568V10.298C178.115 11.2059 178.115 11.66 177.938 12.0068C177.783 12.3118 177.535 12.5603 177.23 12.7157L177.163 12.7466C176.915 12.8533 176.606 12.8821 176.123 12.8897L175.521 12.8921V12.2841C175.985 12.2841 176.297 12.2841 176.536 12.2645C176.769 12.2454 176.88 12.211 176.954 12.1736C177.145 12.0765 177.3 11.9213 177.397 11.7307C177.434 11.6573 177.468 11.5458 177.487 11.3133C177.507 11.0734 177.507 10.7619 177.507 10.298Z" fill="black"/>
<path opacity="0.4" d="M178.724 8.23096V10.663C179.213 10.457 179.531 9.97782 179.531 9.44696C179.531 8.91609 179.213 8.43693 178.724 8.23096" fill="black"/>
<path d="M165.955 8.51472C165.955 8.0607 165.955 7.83369 166.044 7.66028C166.121 7.50775 166.245 7.38373 166.398 7.30601C166.571 7.21765 166.798 7.21765 167.252 7.21765H175.602C176.056 7.21765 176.283 7.21765 176.457 7.30601C176.609 7.38373 176.733 7.50775 176.811 7.66028C176.899 7.83369 176.899 8.0607 176.899 8.51472V10.3793C176.899 10.8333 176.899 11.0603 176.811 11.2337C176.733 11.3862 176.609 11.5102 176.457 11.588C176.283 11.6763 176.056 11.6763 175.602 11.6763H167.252C166.798 11.6763 166.571 11.6763 166.398 11.588C166.245 11.5102 166.121 11.3862 166.044 11.2337C165.955 11.0603 165.955 10.8333 165.955 10.3793V8.51472Z" fill="black"/>
<path d="M155.689 11.1234C156.467 10.4654 157.608 10.4654 158.387 11.1234C158.426 11.1588 158.449 11.209 158.45 11.2618C158.451 11.3144 158.43 11.365 158.392 11.4019L157.173 12.6316C157.137 12.6677 157.089 12.688 157.038 12.688C156.987 12.6879 156.938 12.6677 156.902 12.6316L155.683 11.4019C155.645 11.365 155.625 11.3143 155.626 11.2618C155.627 11.2091 155.65 11.1588 155.689 11.1234ZM154.062 9.48349C155.739 7.92435 158.337 7.92438 160.015 9.48349C160.053 9.52005 160.074 9.57041 160.075 9.62302C160.075 9.67552 160.055 9.72589 160.018 9.76315L159.313 10.4751C159.24 10.5476 159.123 10.5487 159.049 10.478C158.498 9.9796 157.781 9.70372 157.038 9.70377C156.295 9.70409 155.579 9.98003 155.029 10.478C154.954 10.5488 154.836 10.5477 154.764 10.4751L154.06 9.76315C154.022 9.72594 154.001 9.67556 154.002 9.62302C154.002 9.57045 154.024 9.52004 154.062 9.48349ZM152.435 7.84771C155.008 5.38405 159.067 5.38414 161.64 7.84771C161.677 7.88431 161.698 7.93445 161.699 7.98665C161.699 8.03879 161.678 8.08918 161.642 8.12618L160.936 8.83749C160.864 8.91051 160.745 8.91116 160.672 8.83927C159.691 7.90818 158.39 7.3888 157.038 7.38874C155.685 7.38875 154.384 7.90804 153.403 8.83927C153.33 8.91124 153.212 8.91051 153.139 8.83749L152.433 8.12618C152.396 8.08916 152.376 8.03877 152.376 7.98665C152.377 7.93445 152.398 7.88428 152.435 7.84771Z" fill="black"/>
<path d="M140.216 10.2578C140.552 10.2578 140.824 10.53 140.824 10.8658V12.0818C140.824 12.4175 140.552 12.6898 140.216 12.6898H139.608C139.272 12.6898 139 12.4175 139 12.0818V10.8658C139 10.53 139.272 10.2578 139.608 10.2578H140.216ZM143.054 9.04175C143.389 9.04186 143.662 9.31403 143.662 9.64975V12.0818C143.661 12.4174 143.389 12.6896 143.054 12.6898H142.446C142.11 12.6898 141.838 12.4175 141.838 12.0818V9.64975C141.838 9.31397 142.11 9.04175 142.446 9.04175H143.054ZM145.89 7.62269C146.226 7.62269 146.498 7.89499 146.498 8.23069V12.0818C146.498 12.4175 146.226 12.6898 145.89 12.6898H145.282C144.947 12.6896 144.675 12.4174 144.674 12.0818V8.23069C144.675 7.89506 144.947 7.6228 145.282 7.62269H145.89ZM148.728 6.20422C149.064 6.20422 149.336 6.47643 149.336 6.81222V12.0818C149.336 12.4175 149.064 12.6898 148.728 12.6898H148.12C147.784 12.6898 147.512 12.4175 147.512 12.0818V6.81222C147.512 6.47643 147.784 6.20422 148.12 6.20422H148.728Z" fill="black"/>
</svg>
